<?xml version="1.0" encoding="utf-8"?>
<!-- Generator: Adobe Illustrator 28.0.0, SVG Export Plug-In . SVG Version: 6.00 Build 0)  -->
<svg version="1.1" id="Layer_1" xmlns="http://www.w3.org/2000/svg" xmlns:xlink="http://www.w3.org/1999/xlink" x="0px" y="0px"
	 viewBox="0 0 110 135" style="enable-background:new 0 0 110 135;" xml:space="preserve">
<style type="text/css">
	.st0{fill-rule:evenodd;clip-rule:evenodd;fill:#B2B2B2;}
</style>
<path class="st0" d="M34.7,32.3C34,31.6,33,31.2,32,31.2s-1.9,0.4-2.6,1.1L14.8,46.9c-1.5,1.5-1.5,3.8,0,5.3s3.8,1.5,5.3,0l8.2-8.2
	v28.4c0,9,7.3,16.2,16.2,16.2h6.2c2.1,0,3.8-1.7,3.8-3.8S52.8,81,50.7,81h-6.2c-4.8,0-8.8-3.9-8.8-8.8V44.1l8.2,8.2
	c1.5,1.5,3.8,1.5,5.3,0s1.5-3.8,0-5.3L34.7,32.3z M75.3,87.7c0.7,0.7,1.7,1.1,2.7,1.1s1.9-0.4,2.6-1.1l14.6-14.6
	c1.5-1.5,1.5-3.8,0-5.3s-3.8-1.5-5.3,0L81.7,76V47.5c0-9-7.3-16.2-16.2-16.2h-6.2c-2.1,0-3.8,1.7-3.8,3.8s1.7,3.8,3.8,3.8h6.2
	c4.8,0,8.8,3.9,8.8,8.8v28.4L66,67.8c-1.5-1.5-3.8-1.5-5.3,0s-1.5,3.8,0,5.3L75.3,87.7z"/>
</svg>
