<?xml version="1.0" encoding="utf-8"?>
<!-- Generator: Adobe Illustrator 28.0.0, SVG Export Plug-In . SVG Version: 6.00 Build 0)  -->
<svg version="1.1" id="Layer_1" xmlns="http://www.w3.org/2000/svg" xmlns:xlink="http://www.w3.org/1999/xlink" x="0px" y="0px"
	 viewBox="0 0 110 135" style="enable-background:new 0 0 110 135;" xml:space="preserve">
<style type="text/css">
	.st0{fill-rule:evenodd;clip-rule:evenodd;fill:#B2B2B2;}
</style>
<path class="st0" d="M61.8,23.2c-1.4,0.6-2.3,1.9-2.3,3.4v15c-4.4,0-10,0.1-15.7,1c-7.6,1.2-15.9,3.8-22.4,10
	C10.3,63,9.6,74.5,9.6,89.2c0,1.7,1.2,3.2,2.8,3.6s3.4-0.3,4.2-1.8c0,0,0,0,0-0.1c0.1-0.1,0.1-0.2,0.3-0.4c0.3-0.4,0.7-1,1.4-1.8
	c1.4-1.5,3.6-3.6,7.1-5.8c6.4-4,17.1-8.2,34.1-8.8V89c0,1.5,0.9,2.8,2.3,3.4s3,0.3,4.1-0.7L99,60.6c0.8-0.7,1.2-1.7,1.2-2.7
	s-0.4-2-1.2-2.7L65.9,23.9C64.8,22.9,63.2,22.6,61.8,23.2L61.8,23.2z M91,57.9L67.1,80.5V70.4c0-2.1-1.7-3.8-3.8-3.8
	c-20.4,0-33.6,4.8-41.8,9.9c-1.6,1-3,2-4.2,2.9c0.6-9,2.7-15.4,9.3-21.5c5-4.7,11.6-7,18.4-8C50.9,49,56.6,49,61.2,49
	c0.7,0,1.5,0,2.1,0c2.1,0,3.8-1.7,3.8-3.8v-9.8L91,57.9z"/>
</svg>
