<?xml version="1.0" encoding="utf-8"?>
<!-- Generator: Adobe Illustrator 28.0.0, SVG Export Plug-In . SVG Version: 6.00 Build 0)  -->
<svg version="1.1" id="Layer_1" xmlns="http://www.w3.org/2000/svg" xmlns:xlink="http://www.w3.org/1999/xlink" x="0px" y="0px"
	 viewBox="0 0 110 135" style="enable-background:new 0 0 110 135;" xml:space="preserve">
<style type="text/css">
	.st0{fill-rule:evenodd;clip-rule:evenodd;fill:#ED0972;}
	.st1{fill:#ED0972;}
</style>
<g>
	<path class="st0" d="M54.9,91.6c-1.23,0-2.41-0.49-3.31-1.39L24.38,62.3c-3.8-3.8-5.98-9.2-5.98-14.8c0-5.93,1.96-10.77,5.99-14.81
		c4.17-4.17,8.91-6.19,14.51-6.19c5.53,0,10.72,2.2,14.62,6.2l1.38,1.38l1.39-1.39c1.86-1.96,4.08-3.55,6.59-4.7
		c2.83-1.06,5.51-1.59,8.02-1.59c2.75,0,5.51,0.55,7.98,1.58c2.73,1.14,4.68,2.48,6.74,4.63c2.02,2.11,3.36,4.18,4.5,6.91
		c1.07,2.57,1.58,5.38,1.48,8.12c0,2.54-0.56,5.26-1.67,8.03c-1.04,2.49-2.6,4.81-4.52,6.74L58.21,90.2
		C57.31,91.11,56.13,91.6,54.9,91.6z M38.9,35.7c-3.21,0-5.6,1.02-7.99,3.41c-2.32,2.32-3.31,4.8-3.31,8.29
		c0,3.17,1.21,6.19,3.31,8.29L54.9,80.27L78.88,55.7c1.04-1.04,1.9-2.29,2.61-3.82c0.61-1.39,0.91-2.86,0.91-4.48
		c0-1.6-0.28-3.17-0.84-4.65c-0.51-1.36-1.1-2.47-2.47-3.84c-1.3-1.2-2.42-1.85-3.82-2.5c-1.37-0.55-2.65-0.82-3.86-0.82
		c-0.15,0-0.31,0-0.46,0.01c-1.39,0-2.85,0.31-4.39,0.93c-1.51,0.71-2.72,1.55-3.63,2.55l-4.72,4.82c-0.91,0.91-2.08,1.4-3.31,1.4
		c-1.23,0-2.41-0.49-3.31-1.39l-4.71-4.81C44.81,36.94,41.9,35.7,38.9,35.7z"/>
	<path class="st1" d="M70.9,27.4c2.6,0,5.2,0.5,7.6,1.5c2.4,1,4.3,2.2,6.4,4.4c2.1,2.2,3.3,4.2,4.3,6.6s1.5,5.1,1.4,7.7
		c0,2.6-0.6,5.2-1.6,7.7c-1,2.4-2.5,4.6-4.3,6.4L57.5,89.5c-0.7,0.7-1.6,1.1-2.6,1.1s-1.9-0.4-2.6-1.1L25.1,61.6
		c-3.7-3.7-5.7-8.8-5.7-14.1c0-5.2,1.5-9.9,5.7-14.1c4.1-4.1,8.7-5.9,13.8-5.9c5.2,0,10.2,2.1,13.9,5.9l2.1,2.1l2.1-2.1
		c1.8-1.9,3.9-3.4,6.3-4.5C65.7,28,68.3,27.4,70.9,27.4 M54.9,44.3c-1,0-1.9-0.4-2.6-1.1l-4.7-4.8c-2.3-2.4-5.5-3.7-8.7-3.7
		c-3.3,0-6,1-8.7,3.7c-2.7,2.7-3.6,5.5-3.6,9c0,3.4,1.3,6.7,3.6,9l24.7,25.3l24.7-25.3c1.2-1.2,2.1-2.6,2.8-4.1c0.7-1.6,1-3.2,1-4.9
		c0-1.7-0.3-3.4-0.9-5c-0.6-1.6-1.3-2.8-2.7-4.2c-1.4-1.3-2.6-2-4.1-2.7c-1.35-0.54-2.77-0.92-4.28-0.92c-0.17,0-0.35,0-0.52,0.02
		c-1.6,0-3.2,0.4-4.7,1c-1.5,0.7-2.9,1.6-4,2.8l-4.7,4.8C56.8,43.9,55.9,44.3,54.9,44.3 M70.9,25.4c-2.63,0-5.42,0.55-8.3,1.63
		l-0.07,0.02l-0.06,0.03c-2.61,1.2-4.94,2.85-6.9,4.92l-0.67,0.67l-0.69-0.69c-4.07-4.18-9.51-6.49-15.31-6.49
		c-5.79,0-10.91,2.18-15.21,6.49c-4.23,4.23-6.29,9.3-6.29,15.51c0,5.86,2.29,11.52,6.29,15.51L50.87,90.9
		c1.1,1.11,2.53,1.7,4.03,1.7s2.93-0.6,4.01-1.69L86.13,63.1c2-2,3.64-4.44,4.72-7.03c1.16-2.9,1.75-5.73,1.75-8.43
		c0.1-2.87-0.43-5.82-1.55-8.51c-1.19-2.85-2.59-5-4.7-7.21c-2.16-2.26-4.21-3.67-7.08-4.87C76.67,25.97,73.78,25.4,70.9,25.4
		L70.9,25.4z M66.99,37.44c1.4-0.55,2.72-0.84,3.91-0.84h0.06l0.06,0c0.14-0.01,0.27-0.01,0.41-0.01c1.06,0,2.2,0.25,3.48,0.75
		c1.3,0.61,2.3,1.19,3.51,2.3c1.23,1.24,1.75,2.21,2.22,3.46c0.51,1.37,0.77,2.81,0.77,4.3c0,1.5-0.26,2.8-0.83,4.1
		c-0.65,1.38-1.43,2.54-2.38,3.49L54.9,78.84L31.63,55c-1.93-1.93-3.03-4.7-3.03-7.6c0-3.25,0.87-5.44,3.01-7.59
		c2.21-2.21,4.32-3.11,7.29-3.11c2.73,0,5.38,1.12,7.26,3.08l4.71,4.82c1.1,1.1,2.53,1.7,4.03,1.7c1.5,0,2.93-0.6,4.01-1.69
		l4.71-4.81l0.02-0.02l0.02-0.02C64.49,38.86,65.58,38.1,66.99,37.44L66.99,37.44z"/>
</g>
</svg>
