<?xml version="1.0" encoding="utf-8"?>
<!-- Generator: Adobe Illustrator 28.0.0, SVG Export Plug-In . SVG Version: 6.00 Build 0)  -->
<svg version="1.1" id="Layer_1" xmlns="http://www.w3.org/2000/svg" xmlns:xlink="http://www.w3.org/1999/xlink" x="0px" y="0px"
	 viewBox="0 0 110 135" style="enable-background:new 0 0 110 135;" xml:space="preserve">
<style type="text/css">
	.st0{fill-rule:evenodd;clip-rule:evenodd;fill:#B2B2B2;}
</style>
<path class="st0" d="M75.7,35.5c-1.5-0.6-3.1-1-4.8-0.9c-1.6,0-3.2,0.4-4.7,1c-1.5,0.7-2.9,1.6-4,2.8l0,0l-4.7,4.8
	c-0.7,0.7-1.6,1.1-2.6,1.1s-1.9-0.4-2.6-1.1l-4.7-4.8c-2.3-2.4-5.5-3.7-8.7-3.7c-3.3,0-6,1-8.7,3.7s-3.6,5.5-3.6,9
	c0,3.4,1.3,6.7,3.6,9l24.7,25.3l24.7-25.3l0,0c1.2-1.2,2.1-2.6,2.8-4.1c0.7-1.6,1-3.2,1-4.9s-0.3-3.4-0.9-5s-1.3-2.8-2.7-4.2
	C78.4,36.9,77.2,36.2,75.7,35.5L75.7,35.5z M70.9,27.4c2.6,0,5.2,0.5,7.6,1.5s4.3,2.2,6.4,4.4s3.3,4.2,4.3,6.6
	c1,2.4,1.5,5.1,1.4,7.7c0,2.6-0.6,5.2-1.6,7.7c-1,2.4-2.5,4.6-4.3,6.4L57.5,89.5c-0.7,0.7-1.6,1.1-2.6,1.1s-1.9-0.4-2.6-1.1
	L25.1,61.6c-3.7-3.7-5.7-8.8-5.7-14.1c0-5.2,1.5-9.9,5.7-14.1c4.1-4.1,8.7-5.9,13.8-5.9c5.2,0,10.2,2.1,13.9,5.9l2.1,2.1l2.1-2.1
	c1.8-1.9,3.9-3.4,6.3-4.5C65.7,28,68.3,27.4,70.9,27.4L70.9,27.4z"/>
</svg>
