<?xml version="1.0" encoding="utf-8"?>
<!-- Generator: Adobe Illustrator 28.0.0, SVG Export Plug-In . SVG Version: 6.00 Build 0)  -->
<svg version="1.1" id="Layer_1" xmlns="http://www.w3.org/2000/svg" xmlns:xlink="http://www.w3.org/1999/xlink" x="0px" y="0px"
	 viewBox="0 0 60 75" style="enable-background:new 0 0 60 75;" xml:space="preserve">
<style type="text/css">
	.st0{fill-rule:evenodd;clip-rule:evenodd;fill:#B2B2B2;}
</style>
<g>
	<path class="st0" d="M6.1,24c-3.3,0-6,2.7-6,6s2.7,6,6,6s6-2.7,6-6S9.4,24,6.1,24z M30.1,24c-3.3,0-6,2.7-6,6s2.7,6,6,6s6-2.7,6-6
		C36.1,26.7,33.4,24,30.1,24C30.1,24,30.1,24,30.1,24L30.1,24z M54.1,24c-3.3,0-6,2.7-6,6s2.7,6,6,6s6-2.7,6-6
		C60.1,26.7,57.4,24,54.1,24C54.1,24,54,24,54.1,24L54.1,24z"/>
</g>
</svg>
