<?xml version="1.0" encoding="utf-8"?>
<!-- Generator: Adobe Illustrator 28.0.0, SVG Export Plug-In . SVG Version: 6.00 Build 0)  -->
<svg version="1.1" id="Capa_1" xmlns="http://www.w3.org/2000/svg" xmlns:xlink="http://www.w3.org/1999/xlink" x="0px" y="0px"
	 viewBox="0 0 800 800" style="enable-background:new 0 0 800 800;" xml:space="preserve">
<style type="text/css">
	.st0{fill:#FFFFFF;}
</style>
<path class="st0" d="M656.2,602.7c-8,3.2-16.1,6.4-24.1,9.6c-18.2,6.9-33.7,12.4-45.3,16.4c-39.8,13.6-50.6,15.2-61.4,15.2
	c-18.5,0.1-32-4.4-38.8-7.3c-4-1.7-7.9-3.7-11.7-5.9c-10.1-6-19.4-16.4-22.8-25.4c-3.3-8.6-3.2-31.8-3.2-63.8V346h177.8V177.8H448.9
	V0H324.1c-7.8,0-14.3,5.8-15.3,13.5c-4.6,37.6-13.1,68.9-25.4,92.9c-12,23.7-28.2,44.3-48.2,61.3c-16,13.7-43.4,26.9-81.5,39.3
	c-6.3,2.1-10.6,8-10.6,14.6v109c0,8.5,6.9,15.4,15.4,15.4h89.1v254.4c0,37.5,4,65.7,12.2,86.2c8.3,20.9,23.1,40.5,44,58.4
	c20.5,17.6,45.5,31.3,74.3,40.9C406,795,428.3,800,465.8,800c31.7,0,62-3.3,89.9-9.8c12-2.8,48.9-11.8,92.3-33.6
	c3.6-1.8,6.5-3.3,8.5-4.4c0.1-3.2,0.2-6.3,0.3-9.5c0-40.4,0-80.9,0-121.3C656.6,615.2,656.4,608.9,656.2,602.7z"/>
<path class="st0" d="M689,632.1"/>
</svg>
